<svg width="3660.18182px" height="1154.01738px" viewBox="0 0 3660.18182 1154.01738" version="1.1"
    xmlns="http://www.w3.org/2000/svg" xmlns:xlink="http://www.w3.org/1999/xlink">
    <defs>
        <path
            d="M293.333333,59.5763589 L293.333333,168 C293.333333,181.254834 304.078499,192 317.333333,192 L354.181818,192 C367.436652,192 378.181818,202.745166 378.181818,216 C378.181818,220.88355 376.692024,225.65089 373.911356,229.66548 L230.525193,436.679253 C222.977956,447.575575 208.026498,450.290546 197.130175,442.74331 C190.645913,438.252046 186.782477,430.861342 186.795689,422.973571 L186.959732,325.040201 C186.981712,311.917934 176.46825,301.237748 163.396844,301.003914 L162.959765,301 L125.061571,301 C111.806737,301 101.061571,290.254834 101.061571,277 C101.061571,272.279456 102.45366,267.663732 105.063658,263.730356 L249.33542,46.3067151 C256.664041,35.2621723 271.558434,32.2498232 282.602977,39.5784451 C289.304648,44.0253482 293.333333,51.5335147 293.333333,59.5763589 Z"
            id="path-h1wsmcxzo3-1"></path>
        <filter x="-10.8%" y="-6.3%" width="121.7%" height="114.6%" filterUnits="objectBoundingBox"
            id="filter-h1wsmcxzo3-2">
            <feMorphology radius="16" operator="dilate" in="SourceAlpha" result="shadowSpreadOuter1"></feMorphology>
            <feOffset dx="0" dy="4" in="shadowSpreadOuter1" result="shadowOffsetOuter1"></feOffset>
            <feGaussianBlur stdDeviation="4" in="shadowOffsetOuter1" result="shadowBlurOuter1"></feGaussianBlur>
            <feComposite in="shadowBlurOuter1" in2="SourceAlpha" operator="out"
                result="shadowBlurOuter1"></feComposite>
            <feColorMatrix values="0 0 0 0 0   0 0 0 0 0   0 0 0 0 0  0 0 0 0.25 0" type="matrix"
                in="shadowBlurOuter1"></feColorMatrix>
        </filter>
    </defs>
    <g id="Page-1" stroke="none" stroke-width="1" fill="none" fill-rule="evenodd">
        <g id="Path" transform="translate(3258, 679)">
            <use fill="currentColor" fill-opacity="1" filter="url(#filter-h1wsmcxzo3-2)"
                xlink:href="#path-h1wsmcxzo3-1"></use>
            <path stroke="currentColor" stroke-width="16"
                d="M287.026191,32.9124742 L288.659403,34.0712095 C296.612218,40.0958239 301.333333,49.5228037 301.333333,59.5763589 L301.333333,168 C301.333333,176.836556 308.496777,184 317.333333,184 L354.181818,184 C371.85493,184 386.181818,198.326888 386.181818,216 C386.181818,222.511399 384.195426,228.867853 380.487868,234.220641 L237.101705,441.234413 C227.038723,455.762843 207.103445,459.382804 192.575015,449.319822 C183.929333,443.331471 178.778084,433.477198 178.7957,422.960171 L178.959743,325.026801 C178.974379,316.289297 171.975213,309.158652 163.325212,309.003593 L162.959765,309 L125.061571,309 C107.388459,309 93.0615715,294.673112 93.0615715,277 C93.0615715,270.705942 94.9176902,264.551643 98.3976864,259.307142 L242.669448,41.8835006 C252.440944,27.1574435 272.300135,23.140978 287.026191,32.9124742 Z"
                fill="currentColor" fill-rule="evenodd"></path>
        </g>
    </g>
</svg>
