<?xml version="1.0" encoding="UTF-8"?>
<svg width="512px" height="512px" viewBox="0 0 512 512" version="1.1" xmlns="http://www.w3.org/2000/svg" xmlns:xlink="http://www.w3.org/1999/xlink">
    <title>maple-power</title>
    <g id="maple-power" stroke="none" stroke-width="1" fill="none" fill-rule="evenodd">
        <path d="M396.465418,126.652632 C394.446686,142.147368 393.100865,146.863158 393.100865,164.378947 C429.43804,152.252632 457.027378,137.431579 485.962536,129.347368 C475.76692,159.561085 467.301469,182.103833 458.918407,204.474115 L458.080314,206.710846 L456.823404,210.067432 C452.074299,222.757145 447.307557,235.592132 442.223343,249.936842 C450.112147,251.026204 455.361703,252.00547 460.461514,252.785629 L461.265866,252.907144 L462.069907,253.025272 C462.338111,253.064075 462.606626,253.102301 462.875815,253.139936 L463.685766,253.251056 C470.187366,254.125639 477.286284,254.652632 490,254.652632 C447.606628,288.336842 410.596542,316.631579 367.530259,348.968421 C390.409222,367.157895 397.811239,381.978947 426.073487,409.6 C341.959654,399.494737 295.528818,390.063158 277.360231,381.978947 L277.360957,389.511475 C277.372343,427.717255 277.562104,449.172211 280.724784,499.2 L278.293778,499.200819 C259.406974,499.22048 253.593026,499.712 232.275216,512 C237.856295,494.678766 236.494006,451.86925 235.86673,408.554878 L386.518737,213.413709 L306.022455,221.072667 L333.250069,150.183891 C331.670993,161.260744 330.162112,173.125152 328.501441,186.610526 C351.380403,164.378947 378.29683,144.168421 396.465418,126.652632 Z M205.153961,326.468023 L177.552794,398.333865 C145.356609,405.048811 108.056049,410.677902 87.5994236,409.6 C101.730548,395.789474 109.300793,386.694737 116.618696,378.021053 L117.496037,376.981957 C117.642193,376.809019 117.788349,376.636182 117.934556,376.463409 L118.812805,375.427284 L119.694688,374.391078 C126.033658,366.960707 132.839207,359.397053 144.123919,348.968421 C137.629012,344.633505 130.965392,339.888389 124.105692,334.792438 L205.153961,326.468023 Z M256.5,0 C273.322767,30.9894737 286.108069,63.3263158 307.64121,98.3578947 L307.122,97.509 L123.506862,334.347059 C101.169629,317.714554 76.7517612,297.392582 49.3129966,275.420721 L46.6274936,273.272812 C38.9912509,267.172648 31.1220317,260.951579 23,254.652632 C38.8134006,253.642105 43.5237752,253.642105 47.8976945,253.305263 L48.4216389,253.263139 C52.6112991,252.911832 56.887781,252.200421 70.7766571,249.936842 C61.2886167,226.506105 54.3275578,210.06976 47.6578449,193.773303 L46.8078027,191.693135 L45.9598922,189.611319 C39.0411808,172.594459 32.2323343,155.095579 23,129.347368 C38.7607028,134.899176 51.6097897,139.944033 64.3475368,144.866733 L66.4699438,145.686118 C66.8236666,145.822516 67.1774235,145.958836 67.5312745,146.095086 L69.6559905,146.91182 L71.7858471,147.727282 C86.008428,153.16033 100.765772,158.53494 119.899135,164.378947 C119.899135,159.940557 119.461022,156.525608 118.873434,153.219022 L118.74534,152.511794 L118.613301,151.805881 L118.477948,151.099284 C117.315159,145.084632 115.861671,138.778947 115.861671,126.652632 C137.394813,146.863158 164.98415,169.094737 183.825648,186.610526 C175.75072,137.431579 172.386167,102.4 161.619597,63.3263158 C176.880865,76.4977058 187.203474,84.3127305 197.41528,91.9270236 L198.92171,93.0496007 C199.591387,93.5484216 200.26161,94.0474697 200.933738,94.5481985 L201.943529,95.3007342 C203.292277,96.3062805 204.651371,97.3214575 206.0317,98.3578947 C211.630317,87.7945263 216.264249,78.5418779 220.793444,69.3637336 L222.065227,66.7833263 C231.240616,48.1465263 240.316499,29.3389474 256.5,0 Z" id="Combined-Shape" fill="#000000"></path>
        <polygon id="Path-2" fill="#FF453A" points="350.95302 64 154 317.75 226.171141 310.346154 159.395973 484 355 230.923077 284.177852 237.653846"></polygon>
    </g>
</svg>